<svg width="161" height="63" viewBox="0 0 161 63" fill="none" xmlns="http://www.w3.org/2000/svg">
<path d="M76.2116 43.8341C76.1683 43.7619 76.1344 43.6846 76.1108 43.6039C76.08 43.5044 76.0643 43.4008 76.0645 43.2966C76.0645 43.0963 76.1103 42.9524 76.2 42.8655C76.2469 42.8214 76.3023 42.7872 76.3628 42.7647C76.4233 42.7423 76.4877 42.7321 76.5522 42.7348H79.9277C79.9705 42.8074 80.0043 42.885 80.0284 42.9656C80.0593 43.0652 80.075 43.1688 80.0748 43.273C80.0748 43.4727 80.029 43.6166 79.9393 43.704C79.8922 43.7479 79.8368 43.782 79.7763 43.8043C79.7159 43.8266 79.6515 43.8368 79.5871 43.8341H78.7275V47.3876C78.6395 47.4081 78.5503 47.4235 78.4605 47.4337C78.3409 47.4487 78.2205 47.4563 78.0999 47.4566C77.9951 47.4578 77.8903 47.4487 77.7872 47.4296C77.7047 47.4148 77.6266 47.382 77.5584 47.3334C77.4942 47.2842 77.4459 47.2174 77.4194 47.1413C77.3849 47.0372 77.3692 46.9278 77.3731 46.8183V43.8342L76.2116 43.8341Z" fill="white"/>
<path d="M82.4653 45.0788C82.4653 45.545 82.5609 45.8943 82.7514 46.1246C82.8476 46.2334 82.9661 46.3206 83.0989 46.3804C83.2318 46.4401 83.3759 46.471 83.5218 46.471C83.6676 46.471 83.8117 46.4401 83.9446 46.3804C84.0775 46.3206 84.196 46.2334 84.2922 46.1246C84.4827 45.8943 84.5783 45.545 84.5783 45.0788C84.5783 44.6172 84.4841 44.2713 84.2957 44.0411C84.2037 43.9274 84.0861 43.8368 83.9523 43.7767C83.8186 43.7165 83.6725 43.6884 83.5259 43.6946C83.3796 43.6894 83.2341 43.7176 83.1005 43.7771C82.9669 43.8366 82.8489 43.9257 82.7555 44.0377C82.5625 44.2656 82.4658 44.6127 82.4653 45.0788ZM81.0718 45.0788C81.0651 44.7165 81.1298 44.3563 81.2624 44.0186C81.3742 43.7304 81.5477 43.4697 81.7708 43.2546C81.9939 43.0395 82.2613 42.875 82.5546 42.7725C83.1786 42.5576 83.8572 42.5576 84.4811 42.7725C84.7703 42.8753 85.0351 43.0362 85.2591 43.2451C85.4877 43.4622 85.666 43.7261 85.7816 44.0186C85.9139 44.3565 85.9784 44.7168 85.9715 45.0793C85.9782 45.4428 85.9154 45.8042 85.7864 46.1444C85.6762 46.4342 85.5032 46.6964 85.2797 46.9123C85.0562 47.1283 84.7876 47.2927 84.4929 47.394C84.1802 47.5042 83.8503 47.5589 83.5185 47.5557C83.1863 47.5587 82.8563 47.5027 82.544 47.3905C82.2548 47.2862 81.991 47.1222 81.7702 46.9093C81.5465 46.6892 81.3722 46.4246 81.2588 46.1329C81.1298 45.7966 81.067 45.4389 81.0736 45.0791" fill="white"/>
<path d="M89.6859 43.8949C89.7726 43.8589 89.8619 43.8293 89.953 43.8063C90.0728 43.7735 90.1965 43.7569 90.3208 43.7568C90.506 43.7509 90.6905 43.7835 90.8624 43.8524C90.9255 43.8751 90.9822 43.9125 91.028 43.9613C91.0737 44.0101 91.1071 44.069 91.1255 44.1332C91.1829 44.3433 91.2356 44.5398 91.2842 44.7214C91.3329 44.9029 91.381 45.0782 91.4273 45.2442C91.4736 45.4103 91.5188 45.5758 91.5628 45.7404C91.6069 45.905 91.6492 46.0764 91.6903 46.2555H91.7293C91.7757 45.9429 91.817 45.6442 91.8532 45.3593C91.8895 45.0745 91.9231 44.7952 91.954 44.5214C91.9841 44.2474 92.015 43.9756 92.0467 43.7059C92.0768 43.4371 92.1077 43.164 92.1393 42.8868C92.3253 42.7808 92.536 42.7253 92.7504 42.7257C92.9239 42.7213 93.0953 42.7639 93.2463 42.8488C93.3162 42.8922 93.3727 42.9539 93.4095 43.0271C93.4463 43.1004 93.462 43.1823 93.4548 43.2638C93.4515 43.4247 93.44 43.5853 93.4201 43.745C93.3969 43.9522 93.366 44.1839 93.3274 44.4402C93.2888 44.6965 93.2436 44.9656 93.1919 45.2477C93.1403 45.5297 93.0863 45.7989 93.0296 46.0551C92.973 46.3114 92.9147 46.5436 92.8547 46.7516C92.811 46.9155 92.7557 47.0761 92.689 47.2322C92.5782 47.3197 92.4483 47.3804 92.3097 47.4094C92.1327 47.4557 91.9504 47.4789 91.7675 47.4785C91.5582 47.4836 91.3498 47.4508 91.1524 47.3817C91.0835 47.3632 91.02 47.3289 90.9669 47.2815C90.9139 47.2341 90.8728 47.1749 90.8471 47.1088C90.7793 46.9039 90.7071 46.6605 90.6305 46.3784C90.5538 46.0964 90.4712 45.7862 90.3826 45.4478C90.3102 45.781 90.2353 46.1066 90.1578 46.4245C90.0804 46.7424 90.0107 47.0116 89.9487 47.232C89.8475 47.3158 89.7288 47.3764 89.6012 47.4092C89.435 47.4568 89.2627 47.48 89.0897 47.4783C88.8757 47.4807 88.6628 47.448 88.4595 47.3815C88.3829 47.3627 88.3108 47.3289 88.2475 47.2821C88.1842 47.2352 88.1311 47.1762 88.0911 47.1086C88.0298 46.9757 87.9795 46.8381 87.9405 46.6971C87.8861 46.5158 87.8304 46.3075 87.7743 46.0744C87.7181 45.8413 87.659 45.5886 87.6005 45.3164C87.5421 45.0441 87.4864 44.7741 87.4371 44.502C87.3878 44.2298 87.3434 43.9651 87.3017 43.7055C87.2599 43.4459 87.2293 43.2099 87.209 42.9947C87.2987 42.9168 87.4008 42.8542 87.5111 42.8093C87.6429 42.7527 87.7851 42.7241 87.9287 42.7253C88.0989 42.7185 88.2672 42.7626 88.4118 42.8519C88.4795 42.9023 88.5357 42.9664 88.5765 43.0401C88.6172 43.1137 88.6417 43.1951 88.6482 43.279C88.731 43.8018 88.7992 44.2375 88.8528 44.5861C88.9064 44.9347 88.9504 45.2207 88.9849 45.4443C89.0179 45.667 89.0424 45.8398 89.0584 45.9628C89.0734 46.0859 89.0891 46.1832 89.1047 46.2552H89.1437C89.19 46.0503 89.2338 45.8606 89.2752 45.6859C89.3165 45.5113 89.359 45.3356 89.4026 45.1588C89.4472 44.9827 89.4918 44.7927 89.5382 44.5902C89.5846 44.3876 89.6337 44.1556 89.6852 43.8943" fill="white"/>
<path d="M94.972 43.4708C94.9644 43.3749 94.9778 43.2786 95.0112 43.1884C95.0447 43.0982 95.0975 43.0162 95.166 42.9483C95.2345 42.8803 95.3169 42.8279 95.4078 42.7948C95.4986 42.7616 95.5956 42.7483 95.692 42.756H98.2464C98.2881 42.8258 98.3204 42.9007 98.3426 42.9787C98.3717 43.0733 98.3861 43.1717 98.3855 43.2706C98.3855 43.4657 98.3426 43.6049 98.258 43.686C98.2129 43.7278 98.1598 43.7602 98.1019 43.7813C98.044 43.8025 97.9825 43.8119 97.9209 43.8092H96.288V44.5247H98.0298C98.1208 44.6785 98.1688 44.8537 98.1688 45.0322C98.1688 45.2274 98.1275 45.3657 98.0448 45.4472C98.0008 45.4891 97.9486 45.5217 97.8914 45.5428C97.8343 45.564 97.7734 45.5734 97.7124 45.5704H96.288V46.3779H98.2769C98.3188 46.4478 98.3514 46.5229 98.3737 46.6012C98.4021 46.6961 98.4164 46.7946 98.416 46.8936C98.416 47.0887 98.3737 47.2273 98.2885 47.312C98.2442 47.3549 98.1914 47.3883 98.1335 47.4102C98.0756 47.4321 98.0138 47.442 97.952 47.4392H95.6919C95.5954 47.4469 95.4984 47.4336 95.4076 47.4004C95.3167 47.3672 95.2343 47.3149 95.1658 47.2469C95.0973 47.1789 95.0445 47.097 95.0111 47.0068C94.9776 46.9166 94.9642 46.8202 94.9718 46.7243L94.972 43.4708Z" fill="white"/>
<path d="M101.823 44.8877C101.991 44.897 102.156 44.8437 102.287 44.7381C102.346 44.6811 102.391 44.6119 102.421 44.5355C102.45 44.459 102.462 44.3771 102.457 44.2955C102.462 44.2122 102.448 44.1288 102.415 44.052C102.382 43.9752 102.331 43.9072 102.267 43.8535C102.14 43.7534 101.94 43.7039 101.667 43.7039C101.606 43.7029 101.544 43.7052 101.482 43.7108C101.435 43.7165 101.384 43.724 101.327 43.7344V44.8877H101.823ZM101.335 45.9104V47.3873C101.247 47.4078 101.157 47.4232 101.067 47.4333C100.948 47.4487 100.828 47.4564 100.707 47.4564C100.602 47.4575 100.497 47.4484 100.394 47.4293C100.312 47.4153 100.235 47.3824 100.169 47.3332C100.107 47.2831 100.06 47.2167 100.034 47.1415C99.9993 47.0373 99.9834 46.9278 99.9871 46.8181V43.1962C99.9841 43.1507 99.9904 43.105 100.006 43.0619C100.021 43.0189 100.045 42.9794 100.076 42.9458C100.146 42.8812 100.229 42.8326 100.32 42.8037C100.518 42.7369 100.723 42.6919 100.932 42.6696C101.178 42.6404 101.426 42.6262 101.675 42.627C102.386 42.627 102.923 42.7757 103.284 43.0731C103.462 43.2192 103.603 43.4042 103.697 43.6135C103.791 43.8229 103.835 44.051 103.826 44.28C103.834 44.5713 103.747 44.8574 103.578 45.0955C103.424 45.3112 103.223 45.4898 102.99 45.6183C103.175 45.8701 103.359 46.106 103.54 46.3262C103.698 46.5141 103.84 46.7145 103.965 46.9253C103.923 47.0917 103.823 47.2378 103.682 47.3374C103.548 47.4317 103.387 47.4815 103.222 47.4796C103.122 47.4815 103.023 47.4685 102.928 47.4409C102.85 47.4175 102.777 47.3811 102.711 47.3333C102.647 47.2848 102.59 47.2281 102.541 47.1646C102.488 47.0954 102.44 47.0235 102.394 46.9494L101.745 45.9106L101.335 45.9104Z" fill="white"/>
<path d="M107.805 43.6951C107.407 43.6951 107.103 43.8156 106.892 44.0565C106.681 44.2975 106.575 44.6384 106.574 45.0793C106.574 45.5253 106.692 45.8689 106.926 46.1101C107.161 46.3514 107.477 46.4716 107.875 46.471C108.058 46.4758 108.24 46.4473 108.413 46.387C108.557 46.3314 108.698 46.267 108.834 46.1941C108.92 46.2644 108.99 46.3524 109.039 46.4519C109.091 46.5616 109.116 46.6815 109.113 46.8024C109.113 47.0125 108.995 47.1904 108.76 47.3365C108.526 47.4826 108.168 47.5558 107.689 47.5558C107.358 47.558 107.028 47.5087 106.713 47.4096C106.418 47.3175 106.147 47.1643 105.916 46.9602C105.681 46.7467 105.497 46.4838 105.378 46.1907C105.238 45.837 105.171 45.4591 105.181 45.0793C105.173 44.7179 105.238 44.3587 105.37 44.0221C105.487 43.7314 105.664 43.4682 105.889 43.2491C106.109 43.0381 106.372 42.8757 106.659 42.7725C106.962 42.6633 107.281 42.6087 107.603 42.6114C108.077 42.6114 108.446 42.6873 108.706 42.8416C108.967 42.9958 109.097 43.1927 109.097 43.4339C109.1 43.5569 109.065 43.678 108.996 43.7803C108.935 43.8716 108.856 43.9499 108.764 44.0106C108.628 43.9228 108.484 43.848 108.334 43.7872C108.165 43.7229 107.985 43.6916 107.804 43.6951" fill="white"/>
<path d="M111.689 45.0793C111.689 45.5454 111.785 45.8948 111.975 46.125C112.071 46.2339 112.19 46.3211 112.323 46.3809C112.455 46.4406 112.6 46.4715 112.745 46.4715C112.891 46.4715 113.035 46.4406 113.168 46.3809C113.301 46.3211 113.42 46.2339 113.516 46.125C113.706 45.8948 113.802 45.5454 113.802 45.0793C113.802 44.6177 113.708 44.2717 113.519 44.0416C113.427 43.9279 113.31 43.8373 113.176 43.7771C113.042 43.717 112.896 43.6889 112.75 43.6951C112.603 43.6899 112.458 43.7181 112.324 43.7776C112.191 43.8371 112.073 43.9262 111.979 44.0382C111.786 44.2661 111.69 44.6131 111.689 45.0793ZM110.295 45.0793C110.288 44.7168 110.353 44.3565 110.485 44.0186C110.597 43.7304 110.771 43.4697 110.994 43.2546C111.217 43.0395 111.484 42.875 111.778 42.7725C112.402 42.5576 113.08 42.5576 113.704 42.7725C113.993 42.8753 114.258 43.0361 114.482 43.2451C114.71 43.4623 114.889 43.7262 115.005 44.0186C115.137 44.3565 115.201 44.7168 115.194 45.0793C115.201 45.4428 115.138 45.8042 115.009 46.1444C114.899 46.4342 114.726 46.6964 114.503 46.9123C114.279 47.1283 114.011 47.2927 113.716 47.3939C113.403 47.5042 113.073 47.5589 112.741 47.5557C112.409 47.5587 112.079 47.5027 111.767 47.3905C111.478 47.2862 111.214 47.1222 110.993 46.9093C110.769 46.6892 110.595 46.4246 110.482 46.1329C110.353 45.7966 110.29 45.4389 110.296 45.0791" fill="white"/>
<path d="M77.5887 52.4222C77.5887 52.8884 77.6841 53.2369 77.8748 53.4679C77.9668 53.5807 78.0839 53.6707 78.2169 53.7308C78.3499 53.7909 78.4951 53.8195 78.6411 53.8143C78.7885 53.82 78.9352 53.7917 79.0696 53.7316C79.2041 53.6715 79.3227 53.5812 79.4161 53.4679C79.6062 53.2371 79.7024 52.8883 79.7024 52.4222C79.7024 51.9606 79.6082 51.6143 79.4198 51.3833C79.3274 51.2702 79.2097 51.18 79.076 51.12C78.9424 51.0601 78.7964 51.032 78.6499 51.0381C78.5038 51.0328 78.3583 51.0608 78.2248 51.1201C78.0912 51.1794 77.9731 51.2683 77.8795 51.3799C77.6866 51.6085 77.5899 51.9559 77.5893 52.4222M76.1958 52.4222C76.189 52.0593 76.2535 51.6986 76.3858 51.3604C76.4981 51.0725 76.6717 50.8121 76.8948 50.5971C77.1178 50.3821 77.385 50.2176 77.6781 50.1149C78.3021 49.8992 78.9812 49.8992 79.6052 50.1149C79.8945 50.2178 80.1593 50.3788 80.3831 50.588C80.6114 50.8049 80.7897 51.0684 80.9056 51.3604C81.0377 51.6987 81.102 52.0594 81.095 52.4222C81.1016 52.7857 81.0388 53.1471 80.9098 53.4873C80.7973 53.7803 80.6216 54.0453 80.3949 54.2636C80.1714 54.4732 79.9065 54.6343 79.617 54.7367C79.3037 54.8463 78.9736 54.9008 78.6415 54.8979C78.3094 54.901 77.9793 54.8449 77.6671 54.7322C77.3778 54.6285 77.114 54.4649 76.8932 54.2522C76.6695 54.032 76.4952 53.7672 76.3818 53.4752C76.253 53.139 76.1901 52.7815 76.1967 52.4219" fill="white"/>
<path d="M85.9404 50.0999C85.9826 50.1708 86.015 50.2471 86.0366 50.3266C86.0655 50.4228 86.08 50.5227 86.0794 50.623C86.0794 50.8228 86.0366 50.9649 85.952 51.0501C85.9062 51.0931 85.8521 51.1265 85.7929 51.1483C85.7338 51.17 85.6709 51.1797 85.6079 51.1767H83.9828V52.0452H85.6773C85.7238 52.1136 85.759 52.189 85.7815 52.2685C85.8104 52.3633 85.8248 52.4618 85.8244 52.5609C85.8244 52.756 85.7815 52.8952 85.6958 52.9799C85.6502 53.0232 85.5963 53.0568 85.5372 53.0786C85.4782 53.1005 85.4152 53.1102 85.3523 53.1071H83.9978V54.7295C83.91 54.7504 83.821 54.7658 83.7313 54.7756C83.6117 54.7906 83.4913 54.7982 83.3708 54.7985C83.2657 54.7998 83.1608 54.791 83.0575 54.7721C82.9751 54.7573 82.897 54.7242 82.8293 54.6753C82.7646 54.6265 82.7161 54.5595 82.6902 54.4831C82.6553 54.3791 82.6392 54.2697 82.6428 54.1602V50.8151C82.635 50.7192 82.6483 50.6228 82.6818 50.5325C82.7152 50.4423 82.768 50.3603 82.8365 50.2923C82.9049 50.2242 82.9874 50.1718 83.0783 50.1386C83.1692 50.1053 83.2662 50.0921 83.3627 50.0998L85.9404 50.0999Z" fill="white"/>
<path d="M91.7761 51.2299C91.7038 51.4445 91.6226 51.6841 91.5325 51.9487C91.4428 52.2128 91.3605 52.4805 91.2889 52.7524H92.2486C92.1762 52.4755 92.1024 52.205 92.0273 51.9409C91.9522 51.6767 91.884 51.4398 91.8227 51.2301L91.7761 51.2299ZM90.8476 50.237C90.9735 50.1714 91.1075 50.1223 91.2461 50.0908C91.4218 50.0451 91.6026 50.0219 91.7842 50.0218C92.0173 50.0177 92.2493 50.0556 92.4689 50.1334C92.5551 50.1594 92.6343 50.2043 92.7006 50.2649C92.7668 50.3255 92.8185 50.4002 92.8518 50.4833C92.9444 50.7504 93.0451 51.0606 93.1538 51.414C93.2615 51.7679 93.3705 52.1329 93.4781 52.5098C93.5858 52.8868 93.6925 53.2586 93.7956 53.6253C93.8987 53.9919 93.9896 54.3159 94.0667 54.5973C93.9906 54.6782 93.8945 54.738 93.788 54.7706C93.6459 54.8169 93.4968 54.8391 93.3473 54.8362C93.2417 54.838 93.1364 54.8276 93.0333 54.8051C92.9581 54.7892 92.887 54.7578 92.8248 54.713C92.7687 54.6702 92.7237 54.6147 92.6933 54.5513C92.6568 54.4773 92.627 54.4002 92.6041 54.321L92.4651 53.7904H91.0642C91.0231 53.9441 90.9817 54.103 90.9402 54.2669C90.8991 54.431 90.858 54.5904 90.8163 54.7435C90.7417 54.7701 90.6654 54.792 90.588 54.8091C90.4926 54.8285 90.3953 54.8376 90.2979 54.8362C90.0349 54.8362 89.84 54.7913 89.7132 54.7015C89.6525 54.6602 89.6032 54.6042 89.5701 54.5389C89.537 54.4736 89.521 54.4011 89.5237 54.328C89.5241 54.2552 89.5344 54.1827 89.5544 54.1127C89.5753 54.0419 89.5985 53.9568 89.6245 53.8595C89.6599 53.7208 89.7108 53.5496 89.7751 53.3444C89.8395 53.1391 89.9107 52.9174 89.9883 52.6791C90.0658 52.4408 90.1476 52.1956 90.2356 51.9441C90.3236 51.6925 90.4059 51.4561 90.4836 51.2333C90.5613 51.0105 90.6312 50.8114 90.6961 50.637C90.761 50.4626 90.8114 50.3297 90.8473 50.237" fill="white"/>
<path d="M98.7727 50.0999C98.8148 50.1708 98.8472 50.2471 98.8689 50.3266C98.8978 50.4228 98.9122 50.5227 98.9116 50.623C98.9116 50.8228 98.8689 50.9649 98.7843 51.0501C98.7385 51.0931 98.6844 51.1265 98.6252 51.1483C98.5661 51.17 98.5032 51.1797 98.4402 51.1767H96.8151V52.0452H98.5099C98.5565 52.1136 98.5917 52.189 98.6141 52.2685C98.643 52.3633 98.6574 52.4618 98.657 52.5609C98.657 52.756 98.6141 52.8952 98.529 52.9799C98.4832 53.0232 98.4291 53.0568 98.3698 53.0786C98.3106 53.1005 98.2475 53.1102 98.1844 53.1071H96.8299V54.7295C96.7421 54.7504 96.6531 54.7658 96.5635 54.7756C96.4439 54.7906 96.3234 54.7982 96.2029 54.7985C96.0978 54.7998 95.9929 54.791 95.8895 54.7721C95.8071 54.7573 95.7291 54.7242 95.6613 54.6753C95.5966 54.6265 95.5482 54.5595 95.5223 54.4831C95.4873 54.3791 95.4712 54.2697 95.4748 54.1602V50.8151C95.4671 50.7192 95.4804 50.6228 95.5139 50.5325C95.5474 50.4423 95.6001 50.3603 95.6686 50.2923C95.7371 50.2243 95.8196 50.1718 95.9104 50.1386C96.0013 50.1053 96.0983 50.0921 96.1948 50.0998L98.7727 50.0999Z" fill="white"/>
<path d="M102.195 52.2302C102.363 52.2392 102.528 52.1855 102.659 52.0795C102.718 52.0227 102.764 51.9538 102.793 51.8775C102.823 51.8013 102.835 51.7195 102.829 51.6381C102.835 51.5548 102.82 51.4714 102.787 51.3946C102.754 51.3179 102.704 51.2498 102.64 51.196C102.513 51.0959 102.313 51.0452 102.04 51.0452C101.978 51.0446 101.916 51.0473 101.854 51.0533C101.807 51.0585 101.756 51.0665 101.699 51.0763V52.2302H102.195ZM101.707 53.253V54.7292C101.619 54.75 101.53 54.7654 101.44 54.7753C101.32 54.7903 101.2 54.798 101.08 54.7984C100.974 54.7996 100.869 54.7907 100.766 54.7718C100.684 54.7574 100.608 54.7242 100.542 54.675C100.479 54.6249 100.432 54.5582 100.406 54.4827C100.371 54.3787 100.355 54.2694 100.359 54.1599V50.538C100.356 50.4925 100.363 50.447 100.378 50.404C100.393 50.3611 100.417 50.3217 100.448 50.2882C100.518 50.223 100.601 50.1742 100.692 50.1455C100.89 50.079 101.095 50.0338 101.304 50.0108C101.55 49.9821 101.798 49.9681 102.047 49.9688C102.759 49.9688 103.295 50.1175 103.656 50.4149C103.834 50.561 103.976 50.746 104.07 50.9555C104.164 51.165 104.207 51.3932 104.198 51.6223C104.206 51.9134 104.119 52.1994 103.95 52.4373C103.796 52.6531 103.595 52.8318 103.362 52.9601C103.547 53.2119 103.731 53.4479 103.912 53.6681C104.07 53.856 104.212 54.0564 104.337 54.2672C104.295 54.4335 104.195 54.5795 104.054 54.6793C103.919 54.7729 103.759 54.8224 103.594 54.8208C103.495 54.8224 103.395 54.8096 103.3 54.7829C103.222 54.759 103.149 54.7225 103.083 54.6747C103.019 54.6263 102.961 54.5694 102.913 54.5055C102.86 54.4366 102.811 54.3647 102.767 54.2902L102.117 53.2525L101.707 53.253Z" fill="white"/>
<path d="M107.2 54.7283C107.113 54.7492 107.024 54.7645 106.934 54.7743C106.814 54.7893 106.694 54.797 106.573 54.7973C106.468 54.7986 106.363 54.7897 106.26 54.7709C106.178 54.756 106.1 54.7229 106.032 54.6741C105.967 54.6253 105.919 54.5583 105.893 54.4818C105.858 54.3779 105.842 54.2685 105.845 54.1589V50.0985C105.903 50.0889 105.992 50.0743 106.116 50.0559C106.234 50.0386 106.353 50.0298 106.473 50.0294C106.578 50.0281 106.683 50.037 106.786 50.0559C106.869 50.0712 106.947 50.1043 107.015 50.1528C107.079 50.2022 107.127 50.2689 107.154 50.345C107.188 50.449 107.204 50.5583 107.2 50.6678L107.2 54.7283Z" fill="white"/>
<path d="M111.373 51.0381C110.975 51.0381 110.67 51.1586 110.459 51.3995C110.248 51.6407 110.142 51.9804 110.142 52.4222C110.142 52.8676 110.259 53.2111 110.494 53.4525C110.618 53.5749 110.767 53.6704 110.93 53.7327C111.093 53.795 111.268 53.8229 111.442 53.8145C111.625 53.8193 111.808 53.7904 111.98 53.7293C112.125 53.6742 112.266 53.61 112.402 53.5371C112.488 53.6074 112.558 53.6953 112.607 53.7949C112.659 53.9044 112.684 54.0241 112.681 54.1449C112.681 54.3549 112.564 54.5331 112.328 54.6795C112.093 54.826 111.736 54.8989 111.257 54.8982C110.926 54.9003 110.597 54.851 110.281 54.7521C109.986 54.6603 109.715 54.5068 109.485 54.3019C109.249 54.0892 109.066 53.8266 108.946 53.5336C108.807 53.1799 108.74 52.8021 108.749 52.4222C108.742 52.0609 108.806 51.7016 108.939 51.365C109.056 51.0743 109.232 50.811 109.457 50.592C109.677 50.3809 109.94 50.2183 110.228 50.1149C110.53 50.0058 110.85 49.951 111.171 49.9532C111.645 49.9532 112.013 50.0303 112.275 50.1845C112.535 50.3377 112.665 50.5356 112.665 50.7762C112.669 50.8991 112.633 51.02 112.564 51.1221C112.503 51.2138 112.425 51.2925 112.333 51.3535C112.197 51.2653 112.053 51.1905 111.903 51.1302C111.734 51.0656 111.554 51.0344 111.373 51.0381Z" fill="white"/>
<path d="M116.217 51.2299C116.145 51.4445 116.063 51.6841 115.973 51.9487C115.884 52.2129 115.801 52.4805 115.73 52.7524H116.69C116.617 52.4755 116.543 52.205 116.468 51.9409C116.393 51.6767 116.325 51.4398 116.264 51.2301L116.217 51.2299ZM115.288 50.237C115.414 50.1714 115.548 50.1223 115.687 50.0908C115.863 50.0451 116.044 50.0219 116.225 50.0218C116.458 50.0177 116.69 50.0556 116.91 50.1334C116.996 50.1594 117.075 50.2043 117.141 50.2649C117.208 50.3255 117.259 50.4002 117.293 50.4833C117.385 50.7504 117.486 51.0606 117.595 51.414C117.702 51.768 117.811 52.1332 117.919 52.5098C118.028 52.8864 118.133 53.2582 118.236 53.6253C118.34 53.9913 118.431 54.3153 118.508 54.5973C118.431 54.6782 118.335 54.738 118.229 54.7706C118.087 54.8169 117.938 54.8391 117.788 54.8362C117.683 54.8381 117.577 54.8276 117.474 54.8051C117.399 54.7892 117.328 54.7578 117.266 54.713C117.21 54.6702 117.165 54.6148 117.134 54.5513C117.098 54.4773 117.068 54.4002 117.045 54.321L116.906 53.7904H115.506C115.464 53.9441 115.423 54.1029 115.382 54.2669C115.341 54.4309 115.299 54.5904 115.258 54.7435C115.183 54.7701 115.107 54.792 115.029 54.8091C114.934 54.8285 114.837 54.8376 114.739 54.8362C114.476 54.8362 114.281 54.7913 114.155 54.7015C114.094 54.6602 114.045 54.6042 114.012 54.5389C113.978 54.4736 113.962 54.4011 113.965 54.328C113.965 54.2552 113.976 54.1827 113.996 54.1127C114.017 54.0419 114.04 53.9568 114.066 53.8595C114.101 53.7208 114.152 53.5496 114.217 53.3444C114.281 53.1391 114.352 52.9174 114.43 52.6791C114.507 52.4408 114.589 52.1956 114.677 51.9441C114.765 51.6925 114.847 51.4561 114.925 51.2333C115.002 51.0105 115.073 50.8114 115.138 50.637C115.202 50.4626 115.253 50.3297 115.289 50.237" fill="white"/>
<path d="M7.89246 50.9804C7.89246 51.7903 8.15079 52.3658 8.66746 52.7071C9.18471 53.0507 9.913 53.222 10.8523 53.2211C11.3402 53.2198 11.8273 53.1807 12.3091 53.1042C12.755 53.0392 13.1948 52.9378 13.6239 52.8008C13.9114 53.1522 14.156 53.536 14.3526 53.9445C14.5673 54.4211 14.6715 54.9396 14.6573 55.4616C14.6573 56.645 14.2111 57.6098 13.3187 58.356C12.4263 59.1023 10.8525 59.4758 8.59739 59.4766C5.8408 59.4766 3.71885 58.854 2.23154 57.6089C0.743523 56.3652 -0.000324718 54.3424 1.06337e-07 51.5405V31.5606C0.344704 31.4674 0.83782 31.3663 1.47935 31.2573C2.15469 31.1457 2.83831 31.091 3.52292 31.0939C4.90154 31.0939 5.97447 31.335 6.7417 31.8173C7.50894 32.2996 7.89259 33.3189 7.89265 34.8752V37.8628H14.047C14.2642 38.2742 14.445 38.7037 14.5874 39.1463C14.7649 39.6969 14.8522 40.2723 14.8457 40.8504C14.8457 41.9399 14.6028 42.7257 14.1171 43.2078C13.6314 43.69 12.9817 43.9313 12.1682 43.9318H7.89246V50.9804Z" fill="white"/>
<path d="M25.6035 47.4318C25.6035 49.3305 25.9719 50.7854 26.7086 51.7967C27.4436 52.8079 28.4693 53.3136 29.7855 53.3137C31.1018 53.3139 32.1118 52.8001 32.8156 51.7725C33.5205 50.7461 33.8729 49.2992 33.8727 47.4318C33.8725 45.5643 33.5122 44.1251 32.7918 43.1141C32.0713 42.1023 31.0535 41.5964 29.7387 41.5964C28.4238 41.5964 27.4057 42.1023 26.6844 43.1141C25.9637 44.1251 25.6034 45.5643 25.6035 47.4318ZM42.0473 47.4318C42.0473 49.3615 41.7498 51.0808 41.1547 52.5898C40.5596 54.0987 39.7219 55.3668 38.6414 56.3941C37.5323 57.4387 36.2104 58.2347 34.7652 58.7284C33.2622 59.2574 31.5866 59.5218 29.7387 59.5215C27.8897 59.5215 26.214 59.2416 24.7114 58.6819C23.2652 58.1574 21.9451 57.3386 20.8359 56.2778C19.7332 55.2029 18.8758 53.9052 18.3217 52.4725C17.7263 50.9789 17.429 49.2986 17.4297 47.4314C17.4297 45.5954 17.727 43.9303 18.3217 42.4362C18.876 41.0036 19.7334 39.706 20.8359 38.631C21.9454 37.5706 23.2654 36.7518 24.7114 36.227C26.2151 35.6669 27.8909 35.3868 29.7387 35.3867C31.5865 35.3866 33.262 35.6745 34.7652 36.2506C36.2097 36.7897 37.5286 37.6155 38.6414 38.6776C39.7433 39.753 40.6003 41.0506 41.1547 42.4829C41.7497 43.9765 42.0472 45.626 42.0473 47.4314" fill="white"/>
<path d="M55.8117 53.7335C56.4026 53.7283 56.9921 53.6736 57.5737 53.5701C58.2144 53.4612 58.6919 53.3135 59.0062 53.1269V49.3922L55.6234 49.6724C54.7459 49.7352 54.0255 49.9219 53.4623 50.2325C52.8992 50.5431 52.6173 51.01 52.6167 51.6334C52.6096 51.9253 52.6719 52.2149 52.7985 52.4784C52.925 52.742 53.1124 52.9722 53.3453 53.1504C53.8296 53.5396 54.6517 53.734 55.8117 53.7335ZM55.4358 35.3876C56.9935 35.3726 58.5473 35.5449 60.0633 35.9008C61.4563 36.2438 62.6464 36.7651 63.6337 37.4645C64.6056 38.148 65.3891 39.0631 65.9124 40.1258C66.4441 41.1992 66.7105 42.4676 66.7115 43.9311V54.3869C66.7115 55.1967 66.4844 55.8582 66.0303 56.3713C65.5627 56.8957 65.0157 57.3445 64.409 57.7014C62.373 58.915 59.5073 59.5217 55.812 59.5217C54.1508 59.5217 52.6553 59.3664 51.3253 59.0556C49.9935 58.7442 48.8501 58.2773 47.8952 57.6548C46.9668 57.0616 46.2068 56.2421 45.6877 55.2743C45.171 54.3103 44.9125 53.1899 44.9121 51.9132C44.9121 49.7658 45.5543 48.1163 46.8386 46.9647C48.1222 45.8141 50.1111 45.0985 52.8053 44.8179L58.9596 44.1641V43.8372C58.9596 42.9347 58.5601 42.2889 57.761 41.8999C56.962 41.5109 55.811 41.3164 54.3082 41.3164C53.1391 41.3139 51.9732 41.4392 50.8316 41.6898C49.7885 41.9131 48.7668 42.2256 47.7779 42.6239C47.3707 42.3431 47.026 41.9151 46.744 41.3399C46.4665 40.7809 46.322 40.1659 46.3218 39.5425C46.3218 38.7334 46.5174 38.0876 46.9085 37.6052C47.2997 37.1228 47.9026 36.7104 48.7174 36.3678C49.7572 35.995 50.8373 35.7445 51.9357 35.6214C53.0964 35.4708 54.2655 35.3927 55.436 35.3877" fill="white"/>
<path d="M133.377 15.1547C133.85 14.6817 134.116 14.042 134.116 13.3752C134.116 12.7083 133.85 12.0686 133.377 11.5956C133.144 11.3629 132.866 11.1782 132.561 11.0522C132.256 10.9262 131.928 10.8613 131.598 10.8613C131.267 10.8613 130.939 10.9262 130.634 11.0522C130.329 11.1782 130.051 11.3629 129.818 11.5956H129.796L113.095 28.2109V28.2334C112.861 28.4653 112.675 28.7409 112.549 29.0444C112.422 29.3478 112.356 29.6732 112.356 30.0018C112.356 30.3303 112.422 30.6557 112.549 30.9591C112.675 31.2626 112.861 31.5382 113.095 31.7701C113.571 32.2401 114.215 32.5039 114.886 32.5039C115.557 32.5039 116.201 32.2401 116.677 31.7701L133.4 15.1542L133.377 15.1547Z" fill="#1BABE2"/>
<path d="M124.445 10.6612C124.506 10.5996 124.551 10.5306 124.604 10.4649L124.611 10.4765C124.904 10.1271 125.085 9.88583 125.205 9.70864C125.223 9.68685 125.237 9.66207 125.253 9.63902C125.456 9.32821 125.42 9.27641 125.42 9.27641C125.587 8.64791 125.401 7.66029 125.693 7.1596C125.968 6.64159 126.558 6.44425 127.308 6.41027C127.523 6.39584 127.739 6.38122 127.949 6.36185C128.28 6.37105 128.61 6.31589 128.92 6.19948L128.923 6.20354C128.923 6.20354 128.94 6.19725 128.969 6.18515C128.971 6.18445 128.972 6.18387 128.973 6.1834C129.557 5.94101 130.095 5.60438 130.568 5.18716C130.624 5.13594 130.678 5.08472 130.73 5.03176C130.748 5.01452 130.766 4.99951 130.784 4.98112C130.793 4.97076 130.797 4.96388 130.806 4.95401C131.298 4.42118 131.642 3.76993 131.804 3.06455L131.798 3.0628C131.882 2.69849 131.883 2.31998 131.801 1.95526C131.718 1.59054 131.554 1.24895 131.32 0.955776C131.317 0.940284 131.316 0.927599 131.313 0.911429L131.132 0.72669L131.131 0.726105L130.949 0.54078C130.928 0.535648 130.91 0.534488 130.889 0.529841C130.597 0.300852 130.258 0.139254 129.895 0.056751L129.897 0.0527796C129.888 0.0510368 129.88 0.0510339 129.871 0.049872C129.653 0.00625118 129.431 -0.00885232 129.21 0.00494587C128.048 0.0274095 127.203 0.628313 126.68 1.16754C126.447 1.37131 126.252 1.6152 126.105 1.88753C126.063 1.95434 126.042 1.99346 126.042 1.99346L126.044 1.99579C125.959 2.15351 125.877 2.31405 125.797 2.47633C125.647 2.74207 125.53 3.02553 125.451 3.32007C125.382 3.67022 125.337 4.02461 125.316 4.3808C125.263 5.125 125.05 5.70567 124.522 5.96642C124.209 6.13625 123.716 6.12356 123.235 6.1224C121.496 5.91403 120.338 7.69021 120.338 7.69021L108.685 19.247V19.2694C108.451 19.5014 108.265 19.777 108.138 20.0805C108.012 20.3839 107.946 20.7092 107.946 21.0378C107.946 21.3663 108.012 21.6916 108.138 21.995C108.265 22.2985 108.451 22.5741 108.685 22.8061C109.161 23.2761 109.805 23.5399 110.476 23.5399C111.147 23.5399 111.791 23.2761 112.267 22.8061C112.362 22.7068 112.451 22.6029 112.536 22.4948L124.445 10.6612Z" fill="#1BABE2"/>
<path d="M151.461 36.3386C152.078 36.3079 152.661 36.0512 153.099 35.618L159.635 29.123C160.109 28.6503 160.375 28.0104 160.375 27.3434C160.375 26.6765 160.109 26.0366 159.635 25.5639C159.402 25.3313 159.125 25.1467 158.819 25.0208C158.514 24.8949 158.187 24.8301 157.856 24.8301C157.525 24.8301 157.198 24.8949 156.893 25.0208C156.587 25.1467 156.31 25.3313 156.077 25.5639L156.054 25.5864L149.539 32.0595C149.286 32.3136 149.09 32.6187 148.966 32.9542C148.841 33.2898 148.79 33.648 148.816 34.0047H148.807L148.828 35.2214C148.828 35.4233 148.788 35.6232 148.71 35.8096C148.574 36.0813 148.37 36.313 148.116 36.4819C147.944 36.5833 147.757 36.6559 147.561 36.6965C147.358 36.7265 146.939 36.7443 146.115 36.6412L146.121 36.6545C145.766 36.6323 145.41 36.685 145.077 36.8092C144.745 36.9334 144.442 37.1263 144.19 37.3751C144.117 37.4442 144.049 37.5186 143.988 37.5978L132.504 49.0309H132.482C132.01 49.5036 131.747 50.1424 131.748 50.8078C131.75 51.4731 132.016 52.1108 132.49 52.5813C132.963 53.0519 133.605 53.3169 134.275 53.3185C134.944 53.3202 135.587 53.0582 136.063 52.59C136.13 52.5008 136.197 52.434 136.265 52.3449L147.771 40.9129C148.16 40.5236 148.409 40.017 148.478 39.4723C148.508 39.3677 148.518 39.2584 148.509 39.15V39.1368C148.508 39.1213 148.509 39.1115 148.509 39.0948C148.473 38.334 148.495 37.9805 148.521 37.8125C148.569 37.5837 148.658 37.3655 148.784 37.1679C149.034 36.8053 149.421 36.5843 149.885 36.441C150.109 36.4057 150.335 36.3863 150.562 36.3829L151.465 36.3518L151.461 36.3386Z" fill="#1BABE2"/>
<path d="M141.661 53.2573L141.639 53.2791L136.176 58.707L136.154 58.7295C135.919 58.9615 135.734 59.2371 135.607 59.5405C135.48 59.844 135.415 60.1693 135.415 60.4978C135.415 60.8263 135.48 61.1516 135.607 61.4551C135.734 61.7585 135.919 62.0341 136.154 62.2661C136.63 62.7362 137.274 62.9999 137.945 62.9999C138.616 62.9999 139.26 62.7362 139.736 62.2661L145.22 56.817C145.693 56.3438 145.959 55.704 145.959 55.0371C145.959 54.3702 145.693 53.7304 145.22 53.2573C144.987 53.0246 144.709 52.8401 144.404 52.7142C144.099 52.5883 143.771 52.5234 143.441 52.5234C143.11 52.5234 142.783 52.5883 142.477 52.7142C142.172 52.8401 141.894 53.0246 141.661 53.2573Z" fill="#1BABE2"/>
<path d="M133.914 41.3359L150.726 24.6314C151.197 24.1588 151.461 23.5199 151.459 22.8545C151.458 22.1892 151.191 21.5515 150.718 21.081C150.244 20.6104 149.603 20.3454 148.933 20.3438C148.263 20.3421 147.62 20.6041 147.145 21.0723V21.0942L130.354 37.7767L130.332 37.7997C130.098 38.0316 129.912 38.3072 129.785 38.6106C129.658 38.914 129.593 39.2393 129.593 39.5678C129.593 39.8963 129.658 40.2217 129.785 40.5251C129.912 40.8285 130.098 41.104 130.332 41.3359C130.808 41.8059 131.452 42.0697 132.123 42.0697C132.794 42.0697 133.438 41.8059 133.914 41.3359" fill="#1BABE2"/>
<path d="M129.593 31.6888C130.081 31.5926 130.529 31.3544 130.88 31.0044C130.961 30.9283 131.036 30.8464 131.105 30.7593L146.675 15.2658C147.144 14.7961 147.406 14.1611 147.405 13.4996C147.403 12.8381 147.138 12.2041 146.668 11.7364C146.197 11.2686 145.559 11.0053 144.893 11.0039C144.227 11.0026 143.588 11.2633 143.115 11.7291C143.036 11.7918 142.968 11.867 142.914 11.9518L127.321 27.4453C126.952 27.8141 126.708 28.2884 126.623 28.8018L126.618 28.8036L126.597 29.0718C126.593 29.1283 126.584 29.184 126.584 29.2411L126.483 30.5452L126.499 30.5406C126.457 30.6787 126.411 30.8099 126.377 30.9561C126.255 31.466 126.048 31.8908 125.657 32.1285C125.447 32.2428 125.217 32.316 124.979 32.3443L123.571 32.2401L123.573 32.2454C123.233 32.2362 122.895 32.296 122.579 32.4212C122.263 32.5463 121.975 32.7342 121.735 32.9734C121.656 33.0362 121.588 33.1114 121.533 33.1961L120.713 34.0111C120.24 34.4841 119.975 35.1238 119.975 35.7906C119.975 36.4575 120.24 37.0972 120.713 37.5702C120.947 37.8028 121.224 37.9873 121.529 38.1132C121.835 38.239 122.162 38.3038 122.493 38.3038C122.823 38.3038 123.151 38.239 123.456 38.1132C123.762 37.9873 124.039 37.8028 124.273 37.5702C124.353 37.4942 124.428 37.4122 124.496 37.325L125.294 36.5101C125.748 36.0583 126.01 35.4505 126.026 34.8122L126.032 34.814L126.032 34.7467V34.7379L126.042 33.782L126.041 33.7814C126.109 33.4287 126.16 33.058 126.329 32.8076C126.574 32.4221 127.006 32.2241 127.521 32.1113C127.634 32.0876 127.734 32.052 127.842 32.0241L127.838 32.0385L129.579 31.6926C129.581 31.6927 129.582 31.6925 129.583 31.6921L129.594 31.6898L129.593 31.6888Z" fill="#1BABE2"/>
<path d="M160.446 44.795C160.285 44.6476 160.096 44.534 159.89 44.461C159.685 44.388 159.466 44.357 159.248 44.3701C159.029 44.3832 158.816 44.4399 158.62 44.5369C158.425 44.634 158.251 44.7693 158.109 44.9348L156.655 46.6056C156.503 46.7831 156.388 46.9895 156.319 47.2123C156.249 47.4351 156.225 47.6696 156.249 47.9017L156.245 47.9121C156.245 47.9121 156.504 49.3257 155.052 49.8344C154.462 50.029 153.905 50.3131 153.402 50.6767C153.279 50.7569 153.166 50.853 153.068 50.9628L153.051 50.9821C152.998 51.0386 152.967 51.0754 152.967 51.0754L152.969 51.0765L151.361 52.9246C151.068 53.2631 150.918 53.701 150.943 54.1467C150.968 54.5923 151.165 55.0111 151.494 55.3154C151.654 55.4632 151.843 55.5772 152.049 55.6504C152.255 55.7237 152.474 55.7547 152.692 55.7417C152.91 55.7286 153.124 55.6717 153.319 55.5744C153.515 55.4771 153.689 55.3414 153.83 55.1756L155.538 53.2142C155.558 53.1905 155.572 53.1628 155.591 53.1381L155.597 53.1422C155.648 53.0754 155.688 53.0052 155.734 52.9366V52.9362C156.205 52.2119 156.501 51.3896 156.599 50.5332C156.856 49.3977 157.879 49.4259 157.879 49.4259L157.88 49.4236C158.117 49.4248 158.351 49.3747 158.566 49.2769C158.781 49.1791 158.973 49.0359 159.127 48.8573L160.58 47.1865C160.873 46.8476 161.022 46.4096 160.997 45.9638C160.972 45.5181 160.775 45.0992 160.446 44.7949" fill="#1BABE2"/>
</svg>
